<svg xmlns="http://www.w3.org/2000/svg" viewBox="0 0 100 100">
  <defs>
    <radialGradient id="bgGradient" cx="50%" cy="50%" r="50%">
      <stop offset="0%" stop-color="#1e40af" />
      <stop offset="100%" stop-color="#1e3a8a" />
    </radialGradient>
    <radialGradient id="fishGradient1" cx="30%" cy="30%" r="70%">
      <stop offset="0%" stop-color="#3b82f6" />
      <stop offset="100%" stop-color="#1e40af" />
    </radialGradient>
    <radialGradient id="fishGradient2" cx="70%" cy="70%" r="70%">
      <stop offset="0%" stop-color="#60a5fa" />
      <stop offset="100%" stop-color="#2563eb" />
    </radialGradient>
  </defs>
  
  <!-- Outer circle -->
  <circle cx="50" cy="50" r="48" fill="url(#bgGradient)" stroke="#e2e8f0" stroke-width="2" />
  
  <!-- Inner circle background -->
  <circle cx="50" cy="50" r="38" fill="#f8fafc" stroke="#cbd5e1" stroke-width="1" />
  
  <!-- Top fish (swimming right) -->
  <g transform="translate(50, 50)">
    <!-- Fish body -->
    <path d="M -15 -8 Q -5 -12 8 -8 Q 12 -5 8 -2 Q -5 -4 -15 -8 Z" fill="url(#fishGradient1)" />
    <!-- Fish tail -->
    <path d="M -15 -8 L -22 -12 L -20 -8 L -22 -4 Z" fill="url(#fishGradient1)" />
    <!-- Fish eye -->
    <circle cx="2" cy="-6" r="1.5" fill="#f8fafc" />
    <circle cx="2.5" cy="-6" r="0.5" fill="#1e40af" />
  </g>
  
  <!-- Bottom fish (swimming left) -->
  <g transform="translate(50, 50) rotate(180)">
    <!-- Fish body -->
    <path d="M -15 -8 Q -5 -12 8 -8 Q 12 -5 8 -2 Q -5 -4 -15 -8 Z" fill="url(#fishGradient2)" />
    <!-- Fish tail -->
    <path d="M -15 -8 L -22 -12 L -20 -8 L -22 -4 Z" fill="url(#fishGradient2)" />
    <!-- Fish eye -->
    <circle cx="2" cy="-6" r="1.5" fill="#f8fafc" />
    <circle cx="2.5" cy="-6" r="0.5" fill="#1e40af" />
  </g>
  
  <!-- Decorative water ripples -->
  <circle cx="50" cy="50" r="32" fill="none" stroke="#3b82f6" stroke-width="0.5" opacity="0.3" />
  <circle cx="50" cy="50" r="28" fill="none" stroke="#60a5fa" stroke-width="0.5" opacity="0.2" />
</svg>